<svg xmlns="http://www.w3.org/2000/svg" width="694.556" height="694.245" viewBox="0 0 694.556 694.245">
  <defs>
    <style>
      .cls-1 {
        fill: #35e39d;
      }

      .cls-2 {
        fill: rgba(0,0,0,0);
      }

      .cls-3 {
        fill: #546ce3;
      }
    </style>
  </defs>
  <g id="Group_28" data-name="Group 28" transform="translate(-234.549 -399.276)">
    <path id="Path_42" data-name="Path 42" class="cls-1" d="M314.767,841.523c-.8.8-1.594,1.589-2.387,2.4-102.312-100.268-103.969-264.5-3.7-366.814s264.5-103.969,366.814-3.7q6.141,6.017,11.78,12.329c-102.829-83.674-254.4-76.693-349.031,19.869C247.717,597.973,240.194,740.774,314.767,841.523Z" transform="translate(0 0)"/>
    <path id="Path_43" data-name="Path 43" class="cls-2" d="M451.848,611.9l-.373.382q-2.025,2.067-4.105,4.052l-.023.022c-.567.548-1.135,1.1-1.716,1.63,1.811-2.016,3.676-4.009,5.586-5.959-1.956-1.918-3.869-3.881-5.721-5.86l-.015-.015-.007-.008c-.451-.471-.892-.948-1.335-1.426.487.431.975.864,1.454,1.3l.007.008.017.015q3.035,2.728,5.974,5.6c1.918-1.958,3.882-3.869,5.861-5.721-.522.593-1.052,1.163-1.589,1.741l-.021.023Q453.882,609.824,451.848,611.9Z" transform="translate(136.653 133.948)"/>
    <path id="Path_44" data-name="Path 44" class="cls-1" d="M645.047,837.517c.626.628,1.242,1.247,1.873,1.867-78.336,79.934-206.651,81.229-286.585,2.891s-81.229-206.651-2.893-286.585q4.7-4.8,9.633-9.205C301.7,626.824,307.156,745.243,382.6,819.178,454.766,889.9,566.334,895.782,645.047,837.517Z" transform="translate(42.366 95.981)"/>
    <path id="Path_45" data-name="Path 45" class="cls-3" d="M655.614,831.608A201.982,201.982,0,0,1,588.4,877.059l-.226.092A202.905,202.905,0,0,1,505.44,892.34l-.008-.007h-.195A202.645,202.645,0,0,1,308.445,699.3c0-.061,0-.135-.01-.2a202.75,202.75,0,0,1,13.776-83.453c.028-.076.051-.144.079-.22l.008-.007a201.89,201.89,0,0,1,43.836-67.5,204.45,204.45,0,0,1,15.484-14.26,201.425,201.425,0,0,0-36.519,73.94,1.429,1.429,0,0,1-.043.2,203.865,203.865,0,0,0,.955,105.053,1.024,1.024,0,0,0,.055.2A203.115,203.115,0,0,0,490.625,854.939c.076.015.144.036.2.051a203.975,203.975,0,0,0,104.826-.953c.061-.015.127-.038.2-.054a201.363,201.363,0,0,0,73.7-38.145A204.705,204.705,0,0,1,655.614,831.608Z" transform="translate(48.033 87.614)"/>
    <path id="Path_46" data-name="Path 46" class="cls-2" d="M458.135,617.4q-3.023-2.716-5.952-5.579c-1.918,1.958-3.881,3.869-5.86,5.721-.479.458-.963.907-1.449,1.356.439-.494.879-.988,1.327-1.475l.015-.017c1.812-2.015,3.676-4.009,5.587-5.959-1.958-1.918-3.869-3.881-5.721-5.86.585.514,1.163,1.051,1.735,1.581l.03.03q2.136,1.958,4.209,3.99l.382.373q1.165,1.142,2.308,2.306c.587.59,1.165,1.188,1.728,1.784l.017.015.021.023C457.059,616.262,457.609,616.83,458.135,617.4Z" transform="translate(137.133 134.52)"/>
    <path id="Path_47" data-name="Path 47" class="cls-2" d="M583.649,824.8a203.974,203.974,0,0,1-104.826.953c-.061-.015-.129-.036-.2-.051A203.115,203.115,0,0,1,334.059,683.81a1.026,1.026,0,0,1-.054-.2,203.865,203.865,0,0,1-.955-105.053.742.742,0,0,0,.091-.031c.038-.008.068-.023.106-.031a203.6,203.6,0,0,0,.955,105.173c.023.068.04.129.054.188A202.871,202.871,0,0,0,478.563,825.5c.061.015.135.03.2.051A203.654,203.654,0,0,0,583.7,824.6,1.726,1.726,0,0,1,583.649,824.8Z" transform="translate(60.041 116.849)"/>
    <path id="Path_48" data-name="Path 48" class="cls-2" d="M458.394,618.78c-.487-.431-.973-.864-1.454-1.3l-.015-.015-.007-.008q-3.026-2.716-5.952-5.579c-1.918,1.958-3.882,3.869-5.861,5.721.53-.6,1.067-1.18,1.611-1.766l.023-.021q1.945-2.124,3.968-4.188l.373-.38q2.037-2.079,4.128-4.075l.021-.023c.568-.548,1.135-1.1,1.71-1.622q-2.728,3.036-5.6,5.975c1.949,1.91,3.852,3.866,5.7,5.837l.007.008.017.015C457.51,617.825,457.951,618.3,458.394,618.78Z" transform="translate(137.284 134.471)"/>
    <path id="Path_49" data-name="Path 49" class="cls-1" d="M373.529,539.223c-.639-.611-1.27-1.216-1.916-1.821,76.413-81.774,204.662-86.119,286.436-9.7s86.117,204.664,9.7,286.436q-4.587,4.909-9.412,9.431c63.445-81.87,55.177-200.127-22-272.247C562.512,482.33,450.837,479.105,373.529,539.223Z" transform="translate(89.366 48.142)"/>
    <path id="Path_50" data-name="Path 50" class="cls-3" d="M656.788,831.08a204.68,204.68,0,0,1-15.506,14.285A201.8,201.8,0,0,0,682.8,745.108a1.8,1.8,0,0,0,.013-.182,203.283,203.283,0,0,0-20.627-116.674c-.023-.053-.063-.106-.093-.165A203.9,203.9,0,0,0,569.785,537.8a1.527,1.527,0,0,1-.167-.089,203.365,203.365,0,0,0-117.14-18.027,1.385,1.385,0,0,1-.174.025,201.86,201.86,0,0,0-98.963,43.464,204.956,204.956,0,0,1,13.969-15.791A201.668,201.668,0,0,1,457.1,494.137c.06-.015.121-.031.188-.054a203.6,203.6,0,0,1,105.172-1.166c.068.021.129.036.188.051A202.876,202.876,0,0,1,707.177,634.386c.015.061.031.135.054.2a203.651,203.651,0,0,1,1.165,104.93c-.015.076-.036.144-.051.2A201.69,201.69,0,0,1,656.788,831.08Z" transform="translate(77.453 56.922)"/>
    <path id="Path_51" data-name="Path 51" class="cls-2" d="M457.73,617.913c-.593-.52-1.163-1.051-1.743-1.588l-.022-.023-.017-.015q-2.111-1.933-4.171-3.953l-.38-.373q-2.079-2.037-4.076-4.127l-.03-.03c-.548-.568-1.09-1.128-1.616-1.7q3.036,2.728,5.975,5.6c1.916-1.958,3.881-3.869,5.86-5.721l.015-.017c.471-.449.956-.9,1.434-1.34-.439.494-.879.988-1.327,1.475q-2.728,3.036-5.6,5.975C453.982,613.986,455.886,615.942,457.73,617.913Z" transform="translate(137.657 133.889)"/>
    <path id="Path_52" data-name="Path 52" class="cls-2" d="M643.692,732.674a.763.763,0,0,1-.18.033A203.045,203.045,0,0,0,622.86,615.993c-.03-.059-.061-.119-.084-.172a203.669,203.669,0,0,0-92.1-90.065c-.046-.03-.107-.06-.167-.089a203.051,203.051,0,0,0-117.172-18.042c.007-.068.022-.129.022-.188A203.365,203.365,0,0,1,530.5,525.464a1.552,1.552,0,0,0,.167.089,203.9,203.9,0,0,1,92.306,90.282c.03.06.069.112.093.165A203.284,203.284,0,0,1,643.692,732.674Z" transform="translate(116.571 69.174)"/>
    <path id="Path_53" data-name="Path 53" class="cls-1" d="M754.282,553.672c.8-.795,1.6-1.581,2.394-2.384,101.722,100.5,102.712,264.453,2.209,366.177s-264.454,102.712-366.177,2.207Q386.6,913.64,381,907.318C483.3,991.26,634.633,984.906,729.487,888.9,820.227,797.06,828.315,654.543,754.282,553.672Z" transform="translate(95.485 99.113)"/>
  </g>
</svg>
