<svg xmlns="http://www.w3.org/2000/svg" width="1540.568" height="1539.878" viewBox="0 0 1540.568 1539.878">
  <defs>
    <style>
      .cls-1 {
        fill: #35e39d;
      }

      .cls-2 {
        fill: rgba(0,0,0,0);
      }

      .cls-3 {
        fill: #546ce3;
      }
    </style>
  </defs>
  <g id="Group_12" data-name="Group 12" transform="translate(-234.549 -399.276)">
    <path id="Path_42" data-name="Path 42" class="cls-1" d="M412.478,1380.207c-1.777,1.773-3.536,3.525-5.295,5.321-226.934-222.4-230.609-586.687-8.212-813.617S985.655,341.3,1212.589,563.7q13.62,13.345,26.13,27.346c-228.081-185.594-564.272-170.109-774.171,44.07C263.758,840,247.071,1156.739,412.478,1380.207Z"/>
    <path id="Path_43" data-name="Path 43" class="cls-2" d="M461.239,620.645l-.828.846q-4.491,4.584-9.106,8.989l-.051.048c-1.257,1.216-2.517,2.437-3.807,3.616,4.016-4.47,8.153-8.893,12.389-13.217-4.339-4.254-8.582-8.607-12.689-13l-.033-.033-.015-.018c-1-1.044-1.979-2.1-2.961-3.162,1.081.956,2.162,1.917,3.224,2.891l.015.018.037.033q6.733,6.052,13.25,12.425c4.254-4.342,8.611-8.582,13-12.689-1.158,1.315-2.334,2.58-3.525,3.862l-.048.052Q465.75,616.046,461.239,620.645Z" transform="translate(558.398 547.344)"/>
    <path id="Path_44" data-name="Path 44" class="cls-1" d="M1065.912,1192.012c1.389,1.393,2.756,2.767,4.155,4.141-173.755,177.3-458.364,180.171-635.663,6.413S254.233,744.2,427.988,566.9q10.427-10.641,21.366-20.417c-145.005,178.2-132.906,440.857,34.429,604.85C643.857,1308.209,891.322,1321.246,1065.912,1192.012Z" transform="translate(173.118 392.202)"/>
    <path id="Path_45" data-name="Path 45" class="cls-3" d="M1078.763,1194.536A448.01,448.01,0,0,1,929.668,1295.35l-.5.205a450.054,450.054,0,0,1-183.5,33.689l-.018-.015-.432,0a449.479,449.479,0,0,1-436.5-428.171c0-.136,0-.3-.022-.451a449.713,449.713,0,0,1,30.556-185.1c.062-.168.114-.319.176-.487l.018-.015A447.805,447.805,0,0,1,436.68,565.282a453.461,453.461,0,0,1,34.345-31.63,446.773,446.773,0,0,0-81,164,3.155,3.155,0,0,1-.1.436,452.185,452.185,0,0,0,2.118,233.013,2.279,2.279,0,0,0,.121.45,450.522,450.522,0,0,0,320.64,314.73c.168.033.319.08.454.114a452.429,452.429,0,0,0,232.511-2.115c.135-.033.282-.084.451-.121a446.637,446.637,0,0,0,163.473-84.608A454.054,454.054,0,0,1,1078.763,1194.536Z" transform="translate(196.276 358.012)"/>
    <path id="Path_46" data-name="Path 46" class="cls-2" d="M474.287,631.792q-6.706-6.024-13.2-12.374c-4.254,4.342-8.607,8.582-13,12.689-1.063,1.015-2.136,2.012-3.214,3.009.975-1.1,1.949-2.191,2.943-3.272l.033-.037c4.02-4.47,8.153-8.893,12.392-13.217-4.342-4.254-8.582-8.607-12.689-13,1.3,1.139,2.579,2.33,3.847,3.507l.066.066q4.738,4.342,9.337,8.849l.846.828q2.583,2.534,5.119,5.115c1.3,1.308,2.583,2.635,3.833,3.958l.037.033.048.051C471.9,629.257,473.122,630.517,474.287,631.792Z" transform="translate(560.359 549.681)"/>
    <path id="Path_47" data-name="Path 47" class="cls-2" d="M896.707,1124.823a452.429,452.429,0,0,1-232.511,2.115c-.136-.033-.286-.081-.454-.114A450.522,450.522,0,0,1,343.1,812.094a2.279,2.279,0,0,1-.121-.45,452.185,452.185,0,0,1-2.118-233.013,1.665,1.665,0,0,0,.2-.07c.084-.018.15-.051.234-.069a451.593,451.593,0,0,0,2.118,233.281c.051.15.088.286.121.418a449.981,449.981,0,0,0,320.083,314.184c.135.033.3.066.454.114a451.713,451.713,0,0,0,232.746-2.114A3.852,3.852,0,0,1,896.707,1124.823Z" transform="translate(245.341 477.474)"/>
    <path id="Path_48" data-name="Path 48" class="cls-2" d="M474.58,634.932c-1.081-.957-2.158-1.917-3.224-2.891l-.033-.033-.015-.018q-6.711-6.024-13.2-12.374c-4.254,4.342-8.611,8.582-13,12.689,1.176-1.334,2.367-2.616,3.573-3.917l.051-.048q4.315-4.711,8.8-9.289l.828-.843q4.518-4.611,9.157-9.04l.048-.052c1.26-1.216,2.517-2.433,3.793-3.6q-6.052,6.733-12.422,13.253c4.324,4.236,8.545,8.574,12.638,12.946l.015.018.037.033C472.62,632.814,473.6,633.873,474.58,634.932Z" transform="translate(560.974 549.483)"/>
    <path id="Path_49" data-name="Path 49" class="cls-1" d="M375.864,619.75c-1.418-1.356-2.818-2.7-4.25-4.038,169.49-181.38,453.953-191.017,635.333-21.524s191.014,453.956,21.524,635.333q-10.174,10.888-20.875,20.919c140.725-181.593,122.386-443.894-48.8-603.861C795.039,493.557,547.336,486.4,375.864,619.75Z" transform="translate(365.173 196.72)"/>
    <path id="Path_50" data-name="Path 50" class="cls-3" d="M1026.4,1250.7a454,454,0,0,1-34.393,31.685,447.6,447.6,0,0,0,92.083-222.376,3.987,3.987,0,0,0,.029-.4,450.9,450.9,0,0,0-45.752-258.791c-.051-.117-.139-.234-.205-.366A452.259,452.259,0,0,0,833.427,600.2a3.4,3.4,0,0,1-.37-.2,451.077,451.077,0,0,0-259.824-39.984,3.042,3.042,0,0,1-.385.055,447.738,447.738,0,0,0-219.507,96.406,454.565,454.565,0,0,1,30.985-35.026,447.314,447.314,0,0,1,199.152-118.11c.132-.033.267-.069.418-.121a451.591,451.591,0,0,1,233.277-2.587c.15.048.286.081.418.114a449.992,449.992,0,0,1,320.581,313.674c.033.135.07.3.121.45a451.711,451.711,0,0,1,2.583,232.742c-.033.169-.081.319-.114.455A447.362,447.362,0,0,1,1026.4,1250.7Z" transform="translate(316.492 232.596)"/>
    <path id="Path_51" data-name="Path 51" class="cls-2" d="M472.411,634.1c-1.315-1.154-2.579-2.331-3.866-3.521l-.048-.051-.037-.033q-4.683-4.287-9.252-8.769l-.843-.828q-4.612-4.518-9.04-9.153l-.066-.066c-1.217-1.26-2.418-2.5-3.584-3.778q6.733,6.052,13.254,12.425c4.251-4.342,8.607-8.582,13-12.689l.033-.037c1.044-1,2.121-1.993,3.18-2.972-.975,1.1-1.949,2.191-2.942,3.272q-6.052,6.733-12.426,13.253C464.1,625.388,468.322,629.726,472.411,634.1Z" transform="translate(562.498 547.104)"/>
    <path id="Path_52" data-name="Path 52" class="cls-2" d="M924.277,1009.546a1.687,1.687,0,0,1-.4.073A450.366,450.366,0,0,0,878.071,750.74c-.066-.132-.135-.264-.187-.381A451.75,451.75,0,0,0,673.6,550.588c-.1-.066-.238-.132-.37-.2a450.381,450.381,0,0,0-259.894-40.017c.015-.15.048-.286.048-.418A451.077,451.077,0,0,1,673.21,549.939a3.4,3.4,0,0,0,.37.2A452.259,452.259,0,0,1,878.32,750.388c.066.132.154.249.205.366A450.9,450.9,0,0,1,924.277,1009.546Z" transform="translate(476.339 282.661)"/>
    <path id="Path_53" data-name="Path 53" class="cls-1" d="M1208.967,556.575c1.785-1.763,3.547-3.507,5.31-5.287,225.626,222.922,227.821,586.573,4.9,812.2s-586.577,227.821-812.2,4.9q-13.543-13.378-25.976-27.4c226.923,186.188,562.579,172.1,772.973-40.853C1355.237,1096.425,1373.177,780.315,1208.967,556.575Z" transform="translate(390.175 404.999)"/>
  </g>
</svg>
