<svg xmlns="http://www.w3.org/2000/svg" width="610.153" height="609.88" viewBox="0 0 610.153 609.88">
  <defs>
    <style>
      .cls-1 {
        fill: #35e39d;
      }

      .cls-2 {
        fill: rgba(0,0,0,0);
      }

      .cls-3 {
        fill: #546ce3;
      }
    </style>
  </defs>
  <g id="Group_28" data-name="Group 28" transform="translate(-234.549 -399.276)">
    <path id="Path_42" data-name="Path 42" class="cls-1" d="M305.019,787.781c-.7.7-1.4,1.4-2.1,2.107-89.879-88.084-91.335-232.362-3.252-322.239s232.36-91.335,322.239-3.252q5.394,5.285,10.349,10.831c-90.333-73.506-223.484-67.373-306.616,17.454C246.117,573.827,239.508,699.275,305.019,787.781Z" transform="translate(0 0)"/>
    <path id="Path_43" data-name="Path 43" class="cls-2" d="M450.911,611.025l-.328.335q-1.779,1.815-3.606,3.56l-.02.019c-.5.482-1,.965-1.508,1.432,1.591-1.771,3.229-3.522,4.907-5.235-1.718-1.685-3.4-3.409-5.026-5.148l-.013-.013-.006-.007c-.4-.414-.784-.833-1.173-1.252.428.379.856.759,1.277,1.145l.006.007.014.013q2.667,2.4,5.248,4.921c1.685-1.72,3.41-3.4,5.149-5.026-.459.521-.924,1.022-1.4,1.529l-.019.02Q452.7,609.2,450.911,611.025Z" transform="translate(94.578 92.705)"/>
    <path id="Path_44" data-name="Path 44" class="cls-1" d="M603.059,802.151c.55.552,1.091,1.1,1.646,1.64a178.03,178.03,0,0,1-254.3-249.219q4.13-4.215,8.462-8.086A178.2,178.2,0,0,0,603.059,802.151Z" transform="translate(29.322 66.429)"/>
    <path id="Path_45" data-name="Path 45" class="cls-3" d="M613.4,795.4a177.438,177.438,0,0,1-59.05,39.928l-.2.081a178.249,178.249,0,0,1-72.676,13.343l-.007-.006H481.3a178.019,178.019,0,0,1-172.878-169.58c0-.054,0-.119-.009-.179a178.112,178.112,0,0,1,12.1-73.311c.025-.067.045-.126.07-.193l.007-.006a177.357,177.357,0,0,1,38.509-59.3,179.6,179.6,0,0,1,13.6-12.527,176.948,176.948,0,0,0-32.081,64.955,1.261,1.261,0,0,1-.038.173,179.091,179.091,0,0,0,.839,92.287.9.9,0,0,0,.048.178A178.432,178.432,0,0,0,468.459,815.9c.067.013.126.032.18.045a179.189,179.189,0,0,0,92.088-.838c.054-.013.112-.033.179-.048a176.893,176.893,0,0,0,64.745-33.509A179.8,179.8,0,0,1,613.4,795.4Z" transform="translate(33.244 60.638)"/>
    <path id="Path_46" data-name="Path 46" class="cls-2" d="M456.523,615.969q-2.656-2.386-5.229-4.9c-1.685,1.72-3.409,3.4-5.148,5.026-.421.4-.846.8-1.273,1.191.386-.434.772-.868,1.165-1.3l.013-.015c1.592-1.771,3.229-3.522,4.908-5.235-1.72-1.685-3.4-3.409-5.026-5.148.514.451,1.022.923,1.524,1.389l.026.026q1.876,1.72,3.7,3.5l.335.328q1.023,1,2.027,2.026c.515.518,1.023,1.043,1.518,1.567l.015.013.019.02C455.578,614.965,456.062,615.465,456.523,615.969Z" transform="translate(94.91 93.101)"/>
    <path id="Path_47" data-name="Path 47" class="cls-2" d="M552.417,794.87a179.186,179.186,0,0,1-92.088.837c-.054-.013-.113-.032-.18-.045A178.433,178.433,0,0,1,333.157,671.011a.9.9,0,0,1-.048-.178,179.09,179.09,0,0,1-.839-92.287.672.672,0,0,0,.08-.027c.033-.007.06-.02.093-.028a178.857,178.857,0,0,0,.839,92.392c.02.06.035.113.048.165A178.218,178.218,0,0,0,460.1,795.484c.054.013.119.026.18.045a178.9,178.9,0,0,0,92.181-.837A1.51,1.51,0,0,1,552.417,794.87Z" transform="translate(41.554 80.871)"/>
    <path id="Path_48" data-name="Path 48" class="cls-2" d="M456.779,617.168q-.642-.568-1.277-1.145l-.013-.013-.006-.007q-2.658-2.386-5.229-4.9c-1.685,1.719-3.411,3.4-5.149,5.026.466-.528.938-1.036,1.415-1.552l.02-.019q1.709-1.865,3.486-3.679l.328-.334q1.789-1.826,3.627-3.58l.019-.02c.5-.482,1-.964,1.5-1.425q-2.4,2.667-4.92,5.249c1.712,1.678,3.384,3.4,5.005,5.127l.006.007.015.013C456,616.33,456.39,616.749,456.779,617.168Z" transform="translate(95.014 93.068)"/>
    <path id="Path_49" data-name="Path 49" class="cls-1" d="M373.3,531.189c-.562-.537-1.116-1.068-1.683-1.6a178.03,178.03,0,0,1,260.153,243.1q-4.03,4.312-8.268,8.285a178.2,178.2,0,0,0-250.2-249.79Z" transform="translate(61.851 33.319)"/>
    <path id="Path_50" data-name="Path 50" class="cls-3" d="M619.913,789.216a179.809,179.809,0,0,1-13.622,12.549,177.276,177.276,0,0,0,36.47-88.074,1.594,1.594,0,0,0,.012-.16,178.58,178.58,0,0,0-18.12-102.5c-.02-.046-.055-.093-.081-.145a179.12,179.12,0,0,0-81.089-79.311,1.352,1.352,0,0,1-.147-.078,178.651,178.651,0,0,0-102.905-15.836,1.218,1.218,0,0,1-.152.022,177.329,177.329,0,0,0-86.937,38.182A180.033,180.033,0,0,1,365.613,540a177.161,177.161,0,0,1,78.876-46.778c.052-.013.106-.027.165-.048a178.856,178.856,0,0,1,92.391-1.025c.059.019.113.032.165.045A178.223,178.223,0,0,1,664.179,616.424c.013.054.028.119.048.178a178.9,178.9,0,0,1,1.023,92.179c-.013.067-.032.126-.045.18A177.18,177.18,0,0,1,619.913,789.216Z" transform="translate(53.605 39.396)"/>
    <path id="Path_51" data-name="Path 51" class="cls-2" d="M456.265,616.3c-.521-.457-1.021-.923-1.531-1.395l-.019-.02-.014-.013q-1.855-1.7-3.664-3.473l-.334-.328q-1.826-1.789-3.58-3.625l-.026-.026c-.482-.5-.958-.991-1.419-1.5q2.667,2.4,5.249,4.921c1.684-1.72,3.409-3.4,5.148-5.025l.013-.015c.414-.395.84-.789,1.26-1.177-.386.434-.772.868-1.165,1.3q-2.4,2.667-4.921,5.249C452.973,612.849,454.646,614.567,456.265,616.3Z" transform="translate(95.272 92.665)"/>
    <path id="Path_52" data-name="Path 52" class="cls-2" d="M615.7,705.052a.67.67,0,0,1-.158.029A178.37,178.37,0,0,0,597.4,602.55c-.026-.052-.054-.1-.074-.151a178.918,178.918,0,0,0-80.907-79.121c-.041-.026-.094-.052-.147-.078a178.376,178.376,0,0,0-102.933-15.849c.006-.06.019-.113.019-.165a178.652,178.652,0,0,1,102.905,15.836,1.378,1.378,0,0,0,.146.078A179.12,179.12,0,0,1,597.5,602.411c.026.052.061.1.081.145A178.581,178.581,0,0,1,615.7,705.052Z" transform="translate(80.679 47.875)"/>
    <path id="Path_53" data-name="Path 53" class="cls-1" d="M708.921,553.382c.707-.7,1.4-1.389,2.1-2.094,89.361,88.29,90.23,232.317,1.94,321.679s-232.318,90.23-321.679,1.939q-5.364-5.3-10.288-10.853c89.875,73.741,222.814,68.16,306.142-16.18C766.852,767.194,773.957,642,708.921,553.382Z" transform="translate(66.085 68.596)"/>
  </g>
</svg>
