<svg xmlns="http://www.w3.org/2000/svg" width="979.568" height="979.13" viewBox="0 0 979.568 979.13">
  <defs>
    <style>
      .cls-1 {
        fill: #35e39d;
      }

      .cls-2 {
        fill: rgba(0,0,0,0);
      }

      .cls-3 {
        fill: #546ce3;
      }
    </style>
  </defs>
  <g id="Group_28" data-name="Group 28" transform="translate(-234.549 -399.276)">
    <path id="Path_42" data-name="Path 42" class="cls-1" d="M347.685,1023c-1.13,1.128-2.248,2.241-3.367,3.383-144.3-141.414-146.633-373.044-5.221-517.337s373.041-146.633,517.337-5.221q8.66,8.485,16.615,17.388C728.024,403.2,514.257,413.048,380.793,549.234,253.121,679.508,242.511,880.908,347.685,1023Z" transform="translate(0 0)"/>
    <path id="Path_43" data-name="Path 43" class="cls-2" d="M455.012,614.844l-.526.538q-2.855,2.915-5.79,5.715l-.033.03c-.8.773-1.6,1.549-2.421,2.3,2.554-2.843,5.184-5.655,7.878-8.4-2.759-2.705-5.457-5.473-8.068-8.264l-.021-.021-.009-.012c-.636-.664-1.258-1.337-1.883-2.011.687.608,1.375,1.219,2.05,1.838l.009.012.023.021q4.281,3.848,8.425,7.9c2.7-2.761,5.475-5.456,8.267-8.068-.736.836-1.484,1.64-2.241,2.456l-.03.033Q457.88,611.92,455.012,614.844Z" transform="translate(278.734 273.216)"/>
    <path id="Path_44" data-name="Path 44" class="cls-1" d="M786.832,956.942c.883.885,1.752,1.759,2.642,2.633-110.482,112.735-291.45,114.562-404.185,4.077S270.727,672.2,381.209,559.467q6.63-6.766,13.586-12.982c-92.2,113.306-84.508,280.318,21.892,384.593C518.468,1030.826,675.819,1039.116,786.832,956.942Z" transform="translate(86.415 195.775)"/>
    <path id="Path_45" data-name="Path 45" class="cls-3" d="M798.168,953.874a284.865,284.865,0,0,1-94.8,64.1l-.319.13a286.168,286.168,0,0,1-116.677,21.421l-.012-.009-.275,0A285.8,285.8,0,0,1,308.538,767.269c0-.086,0-.191-.014-.287a285.949,285.949,0,0,1,19.429-117.7c.04-.107.072-.2.112-.31l.012-.009a284.737,284.737,0,0,1,61.824-95.2,288.344,288.344,0,0,1,21.838-20.112,284.08,284.08,0,0,0-51.5,104.282,2.009,2.009,0,0,1-.061.277,287.521,287.521,0,0,0,1.347,148.161,1.448,1.448,0,0,0,.077.286A286.463,286.463,0,0,0,565.476,986.779c.107.021.2.051.289.072a287.677,287.677,0,0,0,147.842-1.344c.086-.021.179-.054.287-.077a283.992,283.992,0,0,0,103.944-53.8A288.705,288.705,0,0,1,798.168,953.874Z" transform="translate(97.975 178.708)"/>
    <path id="Path_46" data-name="Path 46" class="cls-2" d="M463.576,622.252q-4.264-3.83-8.395-7.868c-2.7,2.761-5.473,5.457-8.264,8.068-.676.645-1.358,1.279-2.043,1.913.62-.7,1.24-1.393,1.871-2.081l.021-.023c2.556-2.843,5.184-5.655,7.88-8.4-2.761-2.7-5.457-5.473-8.068-8.264.825.724,1.64,1.482,2.446,2.23l.042.042q3.013,2.761,5.937,5.627l.538.527q1.643,1.611,3.255,3.253c.827.832,1.643,1.675,2.437,2.516l.023.021.03.033C462.059,620.64,462.835,621.441,463.576,622.252Z" transform="translate(279.713 274.383)"/>
    <path id="Path_47" data-name="Path 47" class="cls-2" d="M689.115,925.875a287.676,287.676,0,0,1-147.842,1.344c-.086-.021-.182-.051-.289-.072A286.464,286.464,0,0,1,337.105,727.027a1.444,1.444,0,0,1-.077-.286,287.521,287.521,0,0,1-1.347-148.161,1.04,1.04,0,0,0,.128-.044c.054-.012.1-.033.149-.044a287.145,287.145,0,0,0,1.347,148.331c.033.1.056.182.077.266A286.119,286.119,0,0,0,540.907,926.861c.086.021.191.042.289.072a287.222,287.222,0,0,0,147.991-1.344A2.446,2.446,0,0,1,689.115,925.875Z" transform="translate(122.467 238.34)"/>
    <path id="Path_48" data-name="Path 48" class="cls-2" d="M463.847,624.221c-.687-.608-1.372-1.219-2.05-1.838l-.021-.021-.009-.012q-4.267-3.83-8.395-7.868c-2.705,2.761-5.475,5.457-8.267,8.068.748-.848,1.505-1.664,2.272-2.491l.033-.03q2.744-3,5.6-5.906l.527-.536q2.873-2.932,5.822-5.748l.03-.033c.8-.773,1.6-1.547,2.412-2.288q-3.848,4.281-7.9,8.427c2.749,2.693,5.433,5.452,8.036,8.232l.009.012.023.021C462.6,622.875,463.222,623.548,463.847,624.221Z" transform="translate(280.02 274.284)"/>
    <path id="Path_49" data-name="Path 49" class="cls-1" d="M374.316,566.352c-.9-.862-1.792-1.715-2.7-2.568,107.77-115.33,288.645-121.458,403.976-13.686s121.456,288.647,13.686,403.976Q782.806,961,776,967.375c89.48-115.466,77.819-282.25-31.03-383.964C640.848,486.112,483.346,481.564,374.316,566.352Z" transform="translate(182.283 98.196)"/>
    <path id="Path_50" data-name="Path 50" class="cls-3" d="M781.308,972.447a288.706,288.706,0,0,1-21.869,20.147A284.607,284.607,0,0,0,817.99,851.2a2.516,2.516,0,0,0,.019-.256,286.7,286.7,0,0,0-29.091-164.552c-.033-.074-.089-.149-.13-.233A287.567,287.567,0,0,0,658.6,558.825a2.165,2.165,0,0,1-.235-.126,286.817,286.817,0,0,0-165.209-25.424,1.953,1.953,0,0,1-.245.035,284.694,284.694,0,0,0-139.573,61.3,289.052,289.052,0,0,1,19.7-22.271,284.424,284.424,0,0,1,126.63-75.1c.084-.021.17-.044.266-.077a287.143,287.143,0,0,1,148.329-1.645c.1.03.182.051.266.072A286.127,286.127,0,0,1,852.375,695.039c.021.086.044.191.077.286a287.219,287.219,0,0,1,1.643,147.989c-.021.107-.051.2-.072.289A284.454,284.454,0,0,1,781.308,972.447Z" transform="translate(157.983 116.105)"/>
    <path id="Path_51" data-name="Path 51" class="cls-2" d="M462.676,623.366c-.836-.734-1.64-1.482-2.458-2.239l-.03-.033-.023-.021q-2.977-2.726-5.883-5.576l-.536-.526q-2.932-2.873-5.748-5.82l-.042-.042c-.774-.8-1.538-1.591-2.279-2.4q4.281,3.848,8.427,7.9c2.7-2.761,5.473-5.457,8.264-8.068l.021-.023c.664-.634,1.349-1.267,2.022-1.89-.62.7-1.24,1.393-1.871,2.081q-3.848,4.281-7.9,8.427C457.389,617.827,460.076,620.586,462.676,623.366Z" transform="translate(280.781 273.097)"/>
    <path id="Path_52" data-name="Path 52" class="cls-2" d="M738.218,825.949a1.073,1.073,0,0,1-.254.047,286.365,286.365,0,0,0-29.126-164.608c-.042-.084-.086-.168-.119-.242A287.244,287.244,0,0,0,578.827,534.121c-.065-.042-.151-.084-.235-.126a286.373,286.373,0,0,0-165.253-25.445c.009-.1.03-.182.03-.266a286.816,286.816,0,0,1,165.209,25.424,2.176,2.176,0,0,0,.235.126A287.569,287.569,0,0,1,709,661.164c.042.084.1.159.131.233A286.7,286.7,0,0,1,738.218,825.949Z" transform="translate(237.773 141.095)"/>
    <path id="Path_53" data-name="Path 53" class="cls-1" d="M907.46,554.65c1.135-1.121,2.255-2.23,3.376-3.362,143.464,141.745,144.859,372.971,3.115,516.438s-372.974,144.86-516.438,3.113q-8.611-8.507-16.517-17.423c144.289,118.387,357.715,109.427,491.494-25.976C1000.466,897.913,1011.873,696.914,907.46,554.65Z" transform="translate(194.763 202.162)"/>
  </g>
</svg>
