<svg xmlns="http://www.w3.org/2000/svg" width="979.493" height="449.288" viewBox="0 0 979.493 449.288">
  <defs>
    <style>
      .cls-1 {
        fill: #fff;
      }
    </style>
  </defs>
  <g id="Group_17" data-name="Group 17" transform="matrix(0.996, 0.087, -0.087, 0.996, -479.078, -795.357)">
    <ellipse id="Ellipse_13" data-name="Ellipse 13" class="cls-1" cx="82" cy="81.5" rx="82" ry="81.5" transform="translate(1111 866.76)"/>
    <circle id="Ellipse_22" data-name="Ellipse 22" class="cls-1" cx="40.5" cy="40.5" r="40.5" transform="translate(1449 752.76)"/>
    <circle id="Ellipse_39" data-name="Ellipse 39" class="cls-1" cx="51.5" cy="51.5" r="51.5" transform="translate(1276 686.76)"/>
    <circle id="Ellipse_24" data-name="Ellipse 24" class="cls-1" cx="40.5" cy="40.5" r="40.5" transform="translate(1137 725.76)"/>
    <circle id="Ellipse_16" data-name="Ellipse 16" class="cls-1" cx="40.5" cy="40.5" r="40.5" transform="translate(896 933.76)"/>
    <circle id="Ellipse_12" data-name="Ellipse 12" class="cls-1" cx="23" cy="23" r="23" transform="translate(850 855.76)"/>
    <circle id="Ellipse_42" data-name="Ellipse 42" class="cls-1" cx="23" cy="23" r="23" transform="translate(1378 781.76)"/>
    <circle id="Ellipse_14" data-name="Ellipse 14" class="cls-1" cx="23" cy="23" r="23" transform="translate(1023 804.76)"/>
    <circle id="Ellipse_5" data-name="Ellipse 5" class="cls-1" cx="76" cy="76" r="76" transform="translate(571 877.76)"/>
    <circle id="Ellipse_3" data-name="Ellipse 3" class="cls-1" cx="40.5" cy="40.5" r="40.5" transform="translate(1375 878.76)"/>
    <ellipse id="Ellipse_2" data-name="Ellipse 2" class="cls-1" cx="81.5" cy="82" rx="81.5" ry="82" transform="translate(713 1008.76)"/>
  </g>
</svg>
