<svg xmlns="http://www.w3.org/2000/svg" viewBox="0 0 103.25 136.01"><defs><style>.cls-2{fill:#3fc5f0;}.cls-3{fill:#00aeef;}.cls-4{fill:#42dee1;}</style></defs><title>Asset 3</title><g id="Layer_2" data-name="Layer 2"><g id="Layer_1-2" data-name="Layer 1"><path class="cls-1" d="M31.53,124.89a6.33,6.33,0,0,1,1.63.91l-.56.8a6.33,6.33,0,0,0-1.43-.77,4.36,4.36,0,0,0-1.47-.24,2.85,2.85,0,0,0-1.76.51,1.58,1.58,0,0,0-.67,1.34,1.44,1.44,0,0,0,.58,1.23,6.07,6.07,0,0,0,2.08.84,6.62,6.62,0,0,1,2.7,1.22,2.65,2.65,0,0,1,.82,2.09,2.75,2.75,0,0,1-1.13,2.33,4.56,4.56,0,0,1-2.83.86,5.71,5.71,0,0,1-3.92-1.4l.67-.78a5.5,5.5,0,0,0,1.5.87,4.94,4.94,0,0,0,1.73.28,3.19,3.19,0,0,0,2-.55,1.82,1.82,0,0,0,.75-1.54,2.07,2.07,0,0,0-.26-1.09,2,2,0,0,0-.85-.73,10.34,10.34,0,0,0-1.79-.61,6.13,6.13,0,0,1-2.5-1.16,2.36,2.36,0,0,1-.77-1.84A2.39,2.39,0,0,1,26.5,126a3.16,3.16,0,0,1,1.31-1,4.59,4.59,0,0,1,1.85-.36A5.52,5.52,0,0,1,31.53,124.89Z"/><path class="cls-1" d="M40.2,135.32a4.09,4.09,0,0,1-2.3.69,2.61,2.61,0,0,1-2-.74,3,3,0,0,1-.72-2.15V125.8H33.37v-1h1.84V122.2l1.22-.15v2.77h2.83l-.15,1H36.43v7.26a2.14,2.14,0,0,0,.4,1.43A1.47,1.47,0,0,0,38,135a3.36,3.36,0,0,0,1.68-.48Z"/><path class="cls-1" d="M48.57,135.78h-1l-.07-1.95A4,4,0,0,1,43.87,136a3,3,0,0,1-2.29-.87,3.51,3.51,0,0,1-.81-2.48v-7.84H42v7.71a2.76,2.76,0,0,0,.54,1.88,2.07,2.07,0,0,0,1.62.59c1.27,0,2.34-.74,3.21-2.24v-7.94h1.22Z"/><path class="cls-1" d="M59.34,120.35v15.43H58.29l-.15-1.68A3.61,3.61,0,0,1,54.85,136a3.51,3.51,0,0,1-3-1.52,6.87,6.87,0,0,1-1.1-4.14,8.2,8.2,0,0,1,.51-3,4.59,4.59,0,0,1,1.49-2,3.69,3.69,0,0,1,2.29-.73,3.78,3.78,0,0,1,3.08,1.49v-5.87ZM56.81,134.5A4.39,4.39,0,0,0,58.12,133v-5.72a3.45,3.45,0,0,0-2.87-1.66,2.76,2.76,0,0,0-2.36,1.24,5.94,5.94,0,0,0-.85,3.5,6.29,6.29,0,0,0,.8,3.47A2.51,2.51,0,0,0,55,135,3,3,0,0,0,56.81,134.5Z"/><path class="cls-1" d="M63.55,120.25a.92.92,0,0,1,0,1.26.94.94,0,0,1-.67.25.92.92,0,0,1-.65-.25.92.92,0,0,1,0-1.26.88.88,0,0,1,.65-.25A.9.9,0,0,1,63.55,120.25Zm0,4.57v11H62.29v-11Z"/><path class="cls-1" d="M73.64,126.09a6.41,6.41,0,0,1,1.23,4.18,6.51,6.51,0,0,1-1.25,4.2,4.55,4.55,0,0,1-6.81,0,6.46,6.46,0,0,1-1.23-4.18,7.53,7.53,0,0,1,.57-3,4.47,4.47,0,0,1,1.61-2,4.42,4.42,0,0,1,2.48-.69A4.14,4.14,0,0,1,73.64,126.09Zm-5.88.72a7.4,7.4,0,0,0,0,7A2.86,2.86,0,0,0,70.22,135a2.9,2.9,0,0,0,2.48-1.19,5.88,5.88,0,0,0,.89-3.52,5.8,5.8,0,0,0-.87-3.47,3.17,3.17,0,0,0-5,0Z"/><path class="cls-1" d="M77.4,134.3a1,1,0,0,1,.28.7,1,1,0,0,1-.28.73,1,1,0,0,1-1.73-.73.91.91,0,0,1,.29-.7,1,1,0,0,1,.71-.28A1,1,0,0,1,77.4,134.3Z"/><polygon class="cls-2" points="87.58 61.95 69.69 72.33 69.69 72.32 78.53 56.8 87.58 61.95"/><polygon class="cls-2" points="87.31 20.59 87.36 41.27 78.32 25.86 87.31 20.59"/><polygon class="cls-2" points="87.58 61.95 78.53 56.8 87.36 41.27 87.58 61.95"/><polygon class="cls-3" points="87.58 61.95 75.78 82.71 69.69 72.33 87.58 61.95"/><polygon class="cls-3" points="33.97 72.57 15.99 62.5 3.88 41.83 15.91 41.75 15.96 62.42 24.93 57.15 33.97 72.57"/><polygon class="cls-3" points="33.56 10.69 24.74 26.21 15.91 41.75 15.68 21.06 33.56 10.69"/><polygon class="cls-3" points="87.31 20.59 69.28 10.46 75.24 0 87.31 20.59"/><polygon class="cls-3" points="99.38 41.2 87.36 41.27 87.31 20.59 99.38 41.2"/><polygon class="cls-4" points="15.91 41.75 3.88 41.83 15.68 21.06 15.91 41.75"/><polygon class="cls-4" points="33.56 10.69 15.68 21.06 27.48 0.32 33.56 10.69"/><polygon class="cls-4" points="33.97 72.57 28.03 83.02 15.99 62.5 33.97 72.57"/><polygon class="cls-4" points="99.38 41.2 87.58 61.95 87.36 41.27 99.38 41.2"/><polygon class="cls-4" points="87.31 20.59 78.32 25.86 69.28 10.47 69.28 10.46 87.31 20.59"/><polygon class="cls-4" points="24.93 57.15 15.96 62.42 15.91 41.75 24.93 57.15"/><path class="cls-2" d="M60.77,38.91v8.37a20.46,20.46,0,0,1-7.22,15.6h0V23.25l.91.88A20.47,20.47,0,0,1,60.77,38.91Z"/><path class="cls-4" d="M50.12,29.81V53.92a22.58,22.58,0,0,1-8.06,17.29h0V12.44l1.16,1.12A22.59,22.59,0,0,1,50.12,29.81Z"/><path class="cls-3" d="M64.08,33.82a12.86,12.86,0,0,1-.59,19.07h0V33.25Z"/><path class="cls-1" d="M3.39,96.45l2.4,9.25c.53,2,1,3.91,1.36,5.8h.11c.41-1.85,1-3.8,1.62-5.76l3-9.29h2.78l2.82,9.1c.68,2.18,1.21,4.1,1.62,6h.11a54.57,54.57,0,0,1,1.4-5.91l2.59-9.14h3.27l-5.86,18.21h-3L14.78,106a61.07,61.07,0,0,1-1.61-6h-.08a55.24,55.24,0,0,1-1.65,6L8.5,114.66h-3L0,96.45Z"/><path class="cls-1" d="M31.22,106.15c.08,4.48,2.93,6.32,6.24,6.32a12,12,0,0,0,5-.94l.56,2.37A14.71,14.71,0,0,1,37,115c-5.6,0-8.95-3.69-8.95-9.18S31.3,96,36.6,96c5.94,0,7.52,5.22,7.52,8.57a11.92,11.92,0,0,1-.11,1.54Zm9.7-2.37c0-2.1-.86-5.37-4.58-5.37-3.35,0-4.82,3.08-5.08,5.37Z"/><path class="cls-1" d="M64,88v22c0,1.62,0,3.46.15,4.71h-3L61,111.5H60.9a6.75,6.75,0,0,1-6.21,3.57c-4.4,0-7.78-3.73-7.78-9.25,0-6.06,3.72-9.78,8.16-9.78a6.08,6.08,0,0,1,5.49,2.78h.08V88Zm-3.31,15.91a5.5,5.5,0,0,0-.16-1.39,4.85,4.85,0,0,0-4.77-3.84c-3.43,0-5.46,3-5.46,7,0,3.69,1.81,6.74,5.38,6.74a5,5,0,0,0,4.85-4,5.4,5.4,0,0,0,.16-1.43Z"/><path class="cls-1" d="M71.28,106.15c.07,4.48,2.93,6.32,6.24,6.32a11.91,11.91,0,0,0,5-.94l.57,2.37A14.71,14.71,0,0,1,77.07,115c-5.6,0-8.95-3.69-8.95-9.18S71.35,96,76.66,96c5.94,0,7.52,5.22,7.52,8.57a11.92,11.92,0,0,1-.11,1.54Zm9.7-2.37c0-2.1-.86-5.37-4.58-5.37-3.35,0-4.82,3.08-5.08,5.37Z"/><path class="cls-1" d="M89.56,96.45l3.57,10.23a46.46,46.46,0,0,1,1.47,4.66h.11c.42-1.5.94-3,1.55-4.66l3.53-10.23h3.46l-7.14,18.21H93L86,96.45Z"/></g></g></svg>